<svg width="24" height="24" viewBox="0 0 512 512" xmlns="http://www.w3.org/2000/svg"><path d="M464 377.6c0 46.554-36.819 84.508-82.925 86.331L377.6 464H134.4c-46.554 0-84.508-36.819-86.331-82.925L48 377.6V134.4c0-46.554 36.819-84.508 82.925-86.331L134.4 48H224c8.837 0 16 7.163 16 16 0 8.205-6.177 14.968-14.134 15.892L224 80h-67.7c-26.846 0-37.221 2.004-47.92 7.726-8.946 4.784-15.87 11.708-20.654 20.653-5.386 10.07-7.477 19.853-7.705 43.35L80 355.7c0 26.846 2.004 37.221 7.726 47.92 4.784 8.946 11.708 15.87 20.653 20.654 9.441 5.05 18.63 7.203 39.102 7.64l8.819.086h199.4l8.819-.086c20.473-.437 29.66-2.59 39.102-7.64 8.945-4.784 15.87-11.708 20.653-20.653 5.05-9.441 7.203-18.63 7.64-39.102L432 355.7V288c0-8.837 7.163-16 16-16 8.205 0 14.968 6.177 15.892 14.134L464 288v89.6zM425.806 19.355c3.024 2.958 24.86 24.735 65.508 65.331 5.767 5.768 5.499 16.972.5 22.144-4.999 5.173-190 189.983-192.5 192.484-2.5 2.5-5.254 4.686-11.314 4.686h-64c-8.205 0-16-8-16-16v-64c0-3.536.567-7.002 3.297-9.728 1.82-1.818 66.283-66.346 193.39-193.586 5.767-5.767 16.584-5.767 21.12-1.33zM416 54.64L240 230.624V272h41.344L457.36 96 416 54.64z" fill="#333" fill-rule="nonzero"/></svg>