<svg width="24" height="24" viewBox="0 0 512 512" xmlns="http://www.w3.org/2000/svg"><path d="M160 191.998c0-52.944 43.056-96 96-96s96 43.056 96 96-43.056 96-96 96-96-43.056-96-96m300.56 182.096c-28.88-36.608-77.056-63.84-131.744-77.072C362.08 273.886 384 235.502 384 191.998c0-70.576-57.424-128-128-128s-128 57.424-128 128c0 43.504 21.92 81.888 55.184 105.024-54.688 13.232-102.864 40.464-131.744 77.072-19.616 24.864-19.456 56.752-19.441 58.096.113 8.784 7.249 15.776 16.001 15.776h.112c8.816-.064 15.904-7.28 15.888-16.096 0-.208.096-22.16 12.56-37.968 35.408-44.896 105.84-73.904 179.44-73.904s144.032 29.008 179.44 73.904C447.776 409.566 448 431.214 448 431.87c-.064 8.784 6.976 16 15.808 16.128H464c8.752 0 15.872-7.024 16.003-15.808.029-1.344.189-33.232-19.443-58.096" fill="#333" fill-rule="evenodd"/></svg>