<svg width="24" height="24" viewBox="0 0 512 512" xmlns="http://www.w3.org/2000/svg"><path d="M336 32c8.848 0 16 7.152 16 16v48h80c8.848 0 16 7.152 16 16 0 8.848-7.152 16-16 16h-16v336c0 8.848-7.152 16-16 16H112c-8.848 0-16-7.152-16-16V128H80c-8.848 0-16-7.152-16-16 0-8.848 7.152-16 16-16h80V48c0-8.848 7.152-16 16-16zm48 96H128v320h256V128zm-208 96c8.848 0 16 7.152 16 16v160c0 8.848-7.152 16-16 16-8.848 0-16-7.152-16-16V240c0-8.848 7.152-16 16-16zm160 0c8.848 0 16 7.152 16 16v160c0 8.848-7.152 16-16 16-8.848 0-16-7.152-16-16V240c0-8.848 7.152-16 16-16zm-80 0c8.848 0 16 7.152 16 16v160c0 8.848-7.152 16-16 16-8.848 0-16-7.152-16-16V240c0-8.848 7.152-16 16-16zm64-160H192v32h128V64z" fill="#581D74" fill-rule="evenodd"/></svg>