<svg width="24" height="24" viewBox="0 0 512 512" xmlns="http://www.w3.org/2000/svg"><path d="M208 64c79.408 0 144 64.592 144 144 0 33.952-11.872 65.136-31.6 89.776l122.912 122.912c6.256 6.256 6.256 16.368 0 22.624A15.956 15.956 0 01432 448a15.956 15.956 0 01-11.312-4.688L297.776 320.4C273.136 340.128 241.952 352 208 352c-79.408 0-144-64.592-144-144S128.592 64 208 64zm0 32c-61.744 0-112 50.256-112 112s50.256 112 112 112 112-50.256 112-112S269.744 96 208 96zm0 32c8.848 0 16 7.152 16 16v48h48c8.848 0 16 7.152 16 16 0 8.848-7.152 16-16 16h-48v48c0 8.848-7.152 16-16 16-8.848 0-16-7.152-16-16v-48h-48c-8.848 0-16-7.152-16-16 0-8.848 7.152-16 16-16h48v-48c0-8.848 7.152-16 16-16z" fill="#333" fill-rule="evenodd"/></svg>