<svg width="24" height="24" viewBox="0 0 512 512" xmlns="http://www.w3.org/2000/svg"><path d="M384 64c35.346 0 64 28.654 64 64v256c0 35.346-28.654 64-64 64H128c-35.346 0-64-28.654-64-64V128c0-35.346 28.654-64 64-64h256zm-64 182.64L150.624 416H384c16.87 0 30.69-13.054 31.912-29.612L416 384v-41.36l-96-96zM384 96H128c-16.87 0-30.69 13.054-31.912 29.612L96 128v256c0 11.23 5.785 21.11 14.539 26.82l198.147-198.134c5.768-5.767 14.844-6.211 21.12-1.33l1.508 1.33L416 297.36V128c0-16.87-13.054-30.69-29.612-31.912L384 96zm-200 48c22.091 0 40 17.909 40 40s-17.909 40-40 40-40-17.909-40-40 17.909-40 40-40z" fill="#333" fill-rule="nonzero"/></svg>