<svg width="24" height="24" viewBox="0 0 512 512" xmlns="http://www.w3.org/2000/svg"><path d="M368 32c8.848 0 16 7.152 16 16v96c0 8.848-7.152 16-16 16-8.848 0-16-7.152-16-16V64H96v384h256v-80c0-8.848 7.152-16 16-16 8.848 0 16 7.152 16 16v96c0 8.848-7.152 16-16 16H80c-8.848 0-16-7.152-16-16V48c0-8.848 7.152-16 16-16zm0 144c4.096 0 8.192 1.568 11.312 4.688l64 64c6.256 6.256 6.256 16.368 0 22.624l-64 64c-6.256 6.256-16.368 6.256-22.624 0s-6.256-16.368 0-22.624L393.376 272H192c-8.848 0-16-7.152-16-16 0-8.848 7.152-16 16-16h201.376l-36.688-36.688c-6.256-6.256-6.256-16.368 0-22.624A15.956 15.956 0 01368 176z" fill="#333" fill-rule="evenodd"/></svg>