<svg width="24" height="24" viewBox="0 0 512 512" xmlns="http://www.w3.org/2000/svg"><path d="M256.002 31.998c29.664 0 53.808 24.144 53.808 53.808.032 7.712 3.664 13.184 9.232 15.568 5.888 2.56 12.464 1.376 16.896-2.976 22.16-22.192 57.008-21.264 77.184-.992 10.16 10.16 15.76 23.664 15.76 38.048 0 14.192-5.76 28.08-15.792 38.08-5.376 5.472-6.56 12.048-4.032 17.76a15.885 15.885 0 011.12 3.696 15.266 15.266 0 0012.88 7.2h3.136c29.68 0 53.808 24.144 53.808 53.808 0 29.68-24.128 53.808-53.808 53.808-7.728.032-13.184 3.664-15.568 9.248-.016.032-.048.08-.064.128-2.512 5.728-1.328 12.304 3.04 16.752 11.184 11.168 16.8 24.704 16.8 39.104 0 14.176-5.776 28.064-15.808 38.08-20.176 20.192-55.984 20.192-76.128-.032-5.472-5.36-12.032-6.512-17.76-4.016-5.744 2.448-9.36 7.904-9.376 13.968v3.152c0 29.68-24.144 53.808-53.808 53.808-29.696 0-53.84-24.128-53.84-53.808-.128-7.632-4.048-13.088-9.936-15.248-6.64-2.848-13.2-1.728-17.68 2.672-22.208 22.16-57.04 21.168-77.184.976-10.16-10.16-15.76-23.664-15.76-38.048 0-14.176 5.76-28.08 15.792-38.08 5.36-5.456 6.56-12.048 4.016-17.76-2.448-5.728-7.904-9.36-13.968-9.376H85.81c-29.664 0-53.808-24.144-53.808-53.808 0-29.696 24.144-53.824 53.808-53.824 7.632-.144 13.088-4.048 15.248-9.952 2.896-6.656 1.712-13.232-2.672-17.68-11.168-11.168-16.784-24.704-16.784-39.088 0-14.192 5.76-28.08 15.808-38.096 20.192-20.16 56.016-20.144 76.128.032 5.488 5.392 12.064 6.576 17.76 4.032a15.76 15.76 0 013.68-1.12 15.238 15.238 0 007.216-12.864v-3.152c0-29.664 24.128-53.808 53.808-53.808zm0 32c-12.032 0-21.808 9.776-21.808 21.808v3.232c-.096 18.896-11.328 35.856-28.624 43.264a16.2 16.2 0 01-4.496 1.168c-16.928 6.16-35.856 2.096-48.912-10.688-10.656-10.656-24.016-9.392-32.144-1.264-4.08 4.064-6.416 9.696-6.416 15.456 0 5.824 2.272 11.312 6.4 15.424 14.848 15.136 18.544 35.568 10.72 53.328-6.368 17.376-23.312 29.504-42.832 29.968-14.112 0-23.888 9.792-23.888 21.824 0 12.032 9.776 21.808 21.808 21.808h3.216c18.896.08 35.856 11.296 43.248 28.608 7.792 17.584 4.08 38.032-9.488 51.904-5.328 5.328-7.664 10.96-7.664 16.704 0 5.76 2.336 11.376 6.4 15.44 8.16 8.224 22.72 8.224 30.864.016 9.968-9.776 22.24-14.72 34.528-14.72 6.368 0 12.736 1.328 18.8 4 17.392 6.368 29.52 23.312 29.968 42.816 0 14.128 9.808 23.904 21.84 23.904s21.808-9.776 21.808-21.808v-3.216c.08-18.896 11.296-35.856 28.608-43.248 17.616-7.776 38.048-4.064 51.904 9.488 10.656 10.656 24.016 9.392 32.144 1.264 4.08-4.064 6.4-9.696 6.4-15.44 0-5.84-2.256-11.312-6.384-15.424-14.816-15.136-18.544-35.52-10.752-53.264 7.44-17.248 24.352-28.448 43.12-28.544 13.856 0 23.632-9.776 23.632-21.808s-9.776-21.808-21.808-21.808h-3.232c-18.896-.096-35.856-11.328-43.264-28.624a16.2 16.2 0 01-1.168-4.496c-6.128-16.96-2.096-35.856 10.688-48.912 5.328-5.328 7.664-10.96 7.664-16.704s-2.336-11.376-6.4-15.44c-8.192-8.224-22.688-8.224-30.88-.016-15.12 14.864-35.52 18.56-53.328 10.72-17.136-7.36-28.368-24.304-28.464-43.12 0-13.824-9.776-23.6-21.808-23.6zM256 192c35.296 0 64 28.704 64 64s-28.704 64-64 64-64-28.704-64-64 28.704-64 64-64zm0 32c-17.648 0-32 14.352-32 32s14.352 32 32 32 32-14.352 32-32-14.352-32-32-32z" fill="#333" fill-rule="evenodd"/></svg>