<svg width="24" height="24" viewBox="0 0 512 512" xmlns="http://www.w3.org/2000/svg"><path d="M464 64c-8.848 0-16 7.152-16 16v61.824C407.648 73.968 335.44 32 256 32 132.48 32 32 132.48 32 256s100.48 224 224 224c76.576 0 147.056-38.656 188.56-103.36 4.784-7.44 2.592-17.344-4.848-22.112-7.376-4.752-17.28-2.64-22.08 4.832C382.048 414.864 321.632 448 256 448c-105.872 0-192-86.128-192-192S150.128 64 256 64c68.8 0 131.312 36.72 165.68 96H368c-8.848 0-16 7.152-16 16 0 8.848 7.152 16 16 16h96c8.848 0 16-7.152 16-16V80c0-8.848-7.152-16-16-16" fill="#581D74" fill-rule="evenodd"/></svg>