<svg width="24" height="24" viewBox="0 0 512 512" xmlns="http://www.w3.org/2000/svg"><path d="M432 320c8.848 0 16 7.152 16 16v96c0 8.848-7.152 16-16 16H80c-8.848 0-16-7.152-16-16v-96c0-8.848 7.152-16 16-16 8.848 0 16 7.152 16 16v80h320v-80c0-8.848 7.152-16 16-16zM256 64c8.848 0 16 7.152 16 16v217.376l100.688-100.688c6.256-6.256 16.368-6.256 22.624 0s6.256 16.368 0 22.624l-128 128A15.956 15.956 0 01256 352a15.956 15.956 0 01-11.312-4.688l-128-128c-6.256-6.256-6.256-16.368 0-22.624s16.368-6.256 22.624 0L240 297.376V80c0-8.848 7.152-16 16-16z" fill="#581374" fill-rule="evenodd"/></svg>