<svg width="24" height="24" viewBox="0 0 512 512" xmlns="http://www.w3.org/2000/svg"><path d="M269.776 71.318l208 352a16.014 16.014 0 01.128 16.064A16.037 16.037 0 01464 447.446H48a16.011 16.011 0 01-13.888-8.064 15.937 15.937 0 01.112-16.064l208-352c5.776-9.76 21.776-9.76 27.552 0zM256 110.902L76.032 415.446h359.936L256 110.902zm.002 240.544c8.832 0 16 7.168 16 16 0 8.848-7.168 16-16 16s-16-7.152-16-16c0-8.832 7.168-16 16-16zm0-160c8.848 0 16 7.168 16 16v96c0 8.848-7.152 16-16 16-8.848 0-16-7.152-16-16v-96c0-8.832 7.152-16 16-16z" fill="#E91B06" fill-rule="evenodd"/></svg>