<svg width="24" height="24" viewBox="0 0 512 512" xmlns="http://www.w3.org/2000/svg"><path d="M256 31c123.52 0 224 100.48 224 224S379.52 479 256 479 32 378.52 32 255 132.48 31 256 31zm0 32C150.128 63 64 149.128 64 255s86.128 192 192 192 192-86.128 192-192S361.872 63 256 63zm0 128.312c8.848 0 16 7.152 16 16v160c0 8.848-7.152 16-16 16-8.848 0-16-7.152-16-16v-160c0-8.848 7.152-16 16-16zM256 127c8.832 0 16 7.168 16 16s-7.168 16-16 16-16-7.168-16-16 7.168-16 16-16z" fill="#666666" fill-rule="nonzero"/></svg>