<svg width="24" height="24" viewBox="0 0 512 512" xmlns="http://www.w3.org/2000/svg"><path d="M391.998 383.998h-272c-13.232 0-24-10.768-24-24 0-10.96 5.056-16.8 15.584-27.952 13.664-14.528 32.416-34.416 32.416-76.048v-32c0-61.744 50.256-112 112-112s112 50.256 112 112v32c0 41.632 18.752 61.52 32.416 76.048 10.528 11.152 15.584 16.992 15.584 27.952 0 13.232-10.768 24-24 24m-136 64c-17.648 0-32-14.352-32-32h64c0 17.648-14.352 32-32 32M423.71 310.094c-12.72-13.504-23.712-25.168-23.712-54.096v-32c0-70.496-50.96-129.216-117.952-141.52 3.712-5.216 5.952-11.568 5.952-18.48 0-17.664-14.336-32-32-32s-32 14.336-32 32c0 6.912 2.24 13.264 5.952 18.48-66.992 12.304-117.952 71.024-117.952 141.52v32c0 28.928-10.992 40.592-23.712 54.096-11.376 12.08-24.288 25.76-24.288 49.904 0 30.88 25.12 56 56 56h72c0 35.296 28.704 64 64 64s64-28.704 64-64h72c30.88 0 56-25.12 56-56 0-24.144-12.912-37.824-24.288-49.904" fill="#333" fill-rule="evenodd"/></svg>