<svg width="24" height="24" viewBox="0 0 512 512" xmlns="http://www.w3.org/2000/svg"><path d="M359.408 57.408C433.776 96.208 480 172.32 480 256c0 123.52-100.48 224-224 224S32 379.52 32 256c0-83.68 46.208-159.776 120.592-198.592 7.856-4.096 17.52-1.056 21.6 6.784 4.08 7.84 1.04 17.488-6.784 21.584C103.632 119.056 64 184.288 64 256c0 105.872 86.128 192 192 192s192-86.128 192-192c0-71.728-39.632-136.96-103.408-170.224-7.824-4.096-10.864-13.744-6.784-21.584 4.096-7.84 13.696-10.88 21.6-6.784zM256 32c8.848 0 16 7.152 16 16v128c0 8.848-7.152 16-16 16-8.848 0-16-7.152-16-16V48c0-8.848 7.152-16 16-16z" fill="#581D74" fill-rule="evenodd"/></svg>