<svg width="24" height="24" viewBox="0 0 512 512" xmlns="http://www.w3.org/2000/svg"><path d="M256 32c123.52 0 224 100.48 224 224S379.52 480 256 480 32 379.52 32 256 132.48 32 256 32zm0 32C150.128 64 64 150.128 64 256s86.128 192 192 192 192-86.128 192-192S361.872 64 256 64zm0 40c8.848 0 16 7.152 16 16v120h120c8.848 0 16 7.152 16 16 0 8.848-7.152 16-16 16H272v120c0 8.848-7.152 16-16 16-8.848 0-16-7.152-16-16V272H120c-8.848 0-16-7.152-16-16 0-8.848 7.152-16 16-16h120V120c0-8.848 7.152-16 16-16z" fill="#581D74" fill-rule="evenodd"/></svg>