<svg width="24" height="24" viewBox="0 0 512 512" xmlns="http://www.w3.org/2000/svg"><path d="M208 288c8.848 0 16 7.152 16 16v128c0 8.848-7.152 16-16 16H80c-8.848 0-16-7.152-16-16V304c0-8.848 7.152-16 16-16h128zm224 0c8.848 0 16 7.152 16 16v128c0 8.848-7.152 16-16 16H304c-8.848 0-16-7.152-16-16V304c0-8.848 7.152-16 16-16h128zm-240 32H96v96h96v-96zm224 0h-96v96h96v-96zM208 64c8.848 0 16 7.152 16 16v128c0 8.848-7.152 16-16 16H80c-8.848 0-16-7.152-16-16V80c0-8.848 7.152-16 16-16h128zm224 0c8.848 0 16 7.152 16 16v128c0 8.848-7.152 16-16 16H304c-8.848 0-16-7.152-16-16V80c0-8.848 7.152-16 16-16h128zM192 96H96v96h96V96zm224 0h-96v96h96V96z" fill="#333" fill-rule="evenodd"/></svg>