<svg width="24" height="24" viewBox="0 0 512 512" xmlns="http://www.w3.org/2000/svg"><path d="M278.626 256l132.688-132.688c6.256-6.256 6.256-16.368 0-22.624s-16.368-6.256-22.624 0L256.002 233.376 123.314 100.688c-6.256-6.256-16.368-6.256-22.624 0s-6.256 16.368 0 22.624L233.378 256 100.69 388.688c-6.256 6.256-6.256 16.368 0 22.624A15.956 15.956 0 00112.002 416c4.096 0 8.192-1.568 11.312-4.688l132.688-132.688L388.69 411.312A15.956 15.956 0 00400.002 416c4.096 0 8.192-1.568 11.312-4.688 6.256-6.256 6.256-16.368 0-22.624L278.626 256z" fill="#581D74" fill-rule="evenodd"/></svg>