<svg width="24" height="24" viewBox="0 0 512 512" xmlns="http://www.w3.org/2000/svg"><path d="M160 256c0 35.296-28.704 64-64 64-35.28 0-64-28.704-64-64s28.72-64 64-64c35.296 0 64 28.704 64 64zm-32 0c0-17.648-14.352-32-32-32-17.664 0-32 14.352-32 32s14.336 32 32 32c17.648 0 32-14.352 32-32zm192 0c0 35.296-28.704 64-64 64s-64-28.704-64-64 28.704-64 64-64 64 28.704 64 64zm-32 0c0-17.648-14.352-32-32-32s-32 14.352-32 32 14.352 32 32 32 32-14.352 32-32zm192 0c0 35.296-28.704 64-64 64s-64-28.704-64-64 28.704-64 64-64 64 28.704 64 64zm-32 0c0-17.648-14.352-32-32-32s-32 14.352-32 32 14.352 32 32 32 32-14.352 32-32z" fill="#333" fill-rule="evenodd"/></svg>