<svg width="24" height="24" viewBox="0 0 512 512" xmlns="http://www.w3.org/2000/svg"><path d="M256 32c123.52 0 224 100.48 224 224S379.52 480 256 480 32 379.52 32 256 132.48 32 256 32zm0 32C150.128 64 64 150.128 64 256s86.128 192 192 192 192-86.128 192-192S361.872 64 256 64zm84.69 84.688c6.256-6.256 16.368-6.256 22.624 0s6.256 16.368 0 22.624L278.626 256l84.688 84.688c6.256 6.256 6.256 16.368 0 22.624A15.956 15.956 0 01352.002 368a15.956 15.956 0 01-11.312-4.688l-84.688-84.688-84.688 84.688A15.956 15.956 0 01160.002 368a15.956 15.956 0 01-11.312-4.688c-6.256-6.256-6.256-16.368 0-22.624L233.378 256l-84.688-84.688c-6.256-6.256-6.256-16.368 0-22.624s16.368-6.256 22.624 0l84.688 84.688z" fill="#000" fill-rule="evenodd"/></svg>