<svg width="24" height="24" viewBox="0 0 512 512" xmlns="http://www.w3.org/2000/svg"><path d="M432 320c8.848 0 16 7.152 16 16v96c0 8.848-7.152 16-16 16H80c-8.848 0-16-7.152-16-16v-96c0-8.848 7.152-16 16-16 8.848 0 16 7.152 16 16v80h320v-80c0-8.848 7.152-16 16-16zM256 64c4.096 0 8.192 1.568 11.312 4.688l128 128c6.256 6.256 6.256 16.368 0 22.624s-16.368 6.256-22.624 0L272 118.624V336c0 8.848-7.152 16-16 16-8.848 0-16-7.152-16-16V118.624L139.312 219.312c-6.256 6.256-16.368 6.256-22.624 0s-6.256-16.368 0-22.624l128-128A15.956 15.956 0 01256 64z" fill="#fff" fill-rule="nonzero"/></svg>