<svg width="24" height="24" viewBox="0 0 512 512" xmlns="http://www.w3.org/2000/svg"><path d="M351.996 239.996c3.413 0 6.827 1.089 9.675 3.257l1.637 1.431 112 112c5.775 5.775 6.219 14.835 1.333 21.115l-1.333 1.509-112 112c-6.256 6.256-16.368 6.256-22.624 0-5.775-5.775-6.219-14.835-1.333-21.115l1.333-1.509 84.688-84.688H47.996c-8.848 0-16-7.152-16-16 0-8.216 6.167-14.97 14.132-15.893l1.868-.107h377.376l-84.688-84.688c-6.256-6.256-6.256-16.368 0-22.624a15.956 15.956 0 0111.312-4.688zM160 15.996c4.096 0 8.192 1.568 11.312 4.688 6.256 6.256 6.256 16.368 0 22.624l-84.688 84.688H464c8.848 0 16 7.152 16 16 0 8.848-7.152 16-16 16H86.624l84.688 84.688c6.256 6.256 6.256 16.368 0 22.624s-16.368 6.256-22.624 0l-112-112c-6.256-6.256-6.256-16.368 0-22.624l112-112A15.956 15.956 0 01160 15.996z" fill="#581374" fill-rule="nonzero"/></svg>