<svg width="24" height="24" viewBox="0 0 512 512" xmlns="http://www.w3.org/2000/svg"><path d="M255.998 96.002c122.176 0 217.44 145.136 221.44 151.312a16.044 16.044 0 010 17.376c-4 6.176-99.264 151.312-221.44 151.312-122.16 0-217.44-145.136-221.44-151.312a16.044 16.044 0 010-17.376c4-6.176 99.28-151.312 221.44-151.312zm0 32c-89.056 0-166.72 97.888-188.496 128 21.776 30.112 99.44 128 188.496 128 89.072 0 166.72-97.888 188.496-128-21.776-30.112-99.424-128-188.496-128zm.005 64c35.296 0 64 28.704 64 64s-28.704 64-64 64-64-28.704-64-64 28.704-64 64-64zm0 32c-17.648 0-32 14.352-32 32s14.352 32 32 32 32-14.352 32-32-14.352-32-32-32z" fill="#581D74" fill-rule="evenodd"/></svg>