<svg width="24" height="24" viewBox="0 0 512 512" xmlns="http://www.w3.org/2000/svg"><path d="M256 32c123.52 0 224 100.48 224 224S379.52 480 256 480 32 379.52 32 256 132.48 32 256 32zm0 32C150.128 64 64 150.128 64 256s86.128 192 192 192 192-86.128 192-192S361.872 64 256 64zm123.312 108.688c6.256 6.256 6.256 16.368 0 22.624l-144 144A15.956 15.956 0 01224 344a15.956 15.956 0 01-11.312-4.688l-80-80c-6.256-6.256-6.256-16.368 0-22.624s16.368-6.256 22.624 0L224 305.376l132.688-132.688c6.256-6.256 16.368-6.256 22.624 0z" fill="#398538" fill-rule="evenodd"/></svg>