<svg xmlns="http://www.w3.org/2000/svg" width="80" height="80" viewBox="0 0 80 80"> <g fill="none"> <path fill="#B1006E" d="M24.55 63.8L13.2 63.8 13.2 52.3 24.55 52.3 24.55 63.8zM22.95 53.9L14.8 53.9 14.8 62.2 22.95 62.2 22.95 53.9zM45.55 63.8L34.2 63.8 34.2 52.3 45.55 52.3 45.55 63.8zM35.8 53.9L35.8 62.2 43.95 62.2 43.95 53.9 35.8 53.9zM66.8 63.8L55.45 63.8 55.45 52.3 66.8 52.3 66.8 63.8zM57.05 53.9L57.05 62.2 65.2 62.2 65.2 53.9 57.05 53.9z" class="secondary"/> <path fill="#512472" d="M18.9833333,43.9333333 L60.8,43.9333333 C61.2418278,43.9333333 61.6,43.5751611 61.6,43.1333333 C61.6,42.6915055 61.2418278,42.3333333 60.8,42.3333333 L18.9833333,42.3333333 C18.5415055,42.3333333 18.1833333,42.6915055 18.1833333,43.1333333 C18.1833333,43.5751611 18.5415055,43.9333333 18.9833333,43.9333333 Z" class="primary"/> <path fill="#512472" d="M41.1611111 47.3133333L41.1611111 34.7617187C41.1611111 34.319891 40.8029389 33.9617187 40.3611111 33.9617187 39.9192833 33.9617187 39.5611111 34.319891 39.5611111 34.7617187L39.5611111 47.3133333C39.5611111 47.7551611 39.9192833 48.1133333 40.3611111 48.1133333 40.8029389 48.1133333 41.1611111 47.7551611 41.1611111 47.3133333zM19.7833333 47.3133333L19.7833333 43.1333333C19.7833333 42.6915055 19.4251611 42.3333333 18.9833333 42.3333333 18.5415055 42.3333333 18.1833333 42.6915055 18.1833333 43.1333333L18.1833333 47.3133333C18.1833333 47.7551611 18.5415055 48.1133333 18.9833333 48.1133333 19.4251611 48.1133333 19.7833333 47.7551611 19.7833333 47.3133333zM61.6 47.3133333L61.6 43.1333333C61.6 42.6915055 61.2418278 42.3333333 60.8 42.3333333 60.3581722 42.3333333 60 42.6915055 60 43.1333333L60 47.3133333C60 47.7551611 60.3581722 48.1133333 60.8 48.1133333 61.2418278 48.1133333 61.6 47.7551611 61.6 47.3133333z" class="primary"/> <path fill="#512472" d="M49.8,30 C49.8,27.1845367 45.5828596,25.2 40.5,25.2 C35.4171404,25.2 31.2,27.1845367 31.2,30 C31.2,30.4418278 31.5581722,30.8 32,30.8 C32.407841,30.8 32.7444016,30.4948119 32.7937669,30.1003503 L32.8,30 C32.8,28.3971853 36.1940189,26.8 40.5,26.8 C44.7081179,26.8 48.0452554,28.325411 48.1947698,29.8907446 L48.2,30 C48.2,30.4418278 48.5581722,30.8 49,30.8 C49.4418278,30.8 49.8,30.4418278 49.8,30 Z" transform="matrix(-1 0 0 1 81 0)" class="primary"/> <path fill="#B1006E" d="M40.5,12.2 C43.4271092,12.2 45.8,14.5728908 45.8,17.5 C45.8,20.4271092 43.4271092,22.8 40.5,22.8 C37.5728908,22.8 35.2,20.4271092 35.2,17.5 C35.2,14.5728908 37.5728908,12.2 40.5,12.2 Z M40.5,13.8 C38.4565464,13.8 36.8,15.4565464 36.8,17.5 C36.8,19.5434536 38.4565464,21.2 40.5,21.2 C42.5434536,21.2 44.2,19.5434536 44.2,17.5 C44.2,15.4565464 42.5434536,13.8 40.5,13.8 Z" transform="matrix(-1 0 0 1 81 0)" class="secondary"/> </g> </svg> 