<svg xmlns="http://www.w3.org/2000/svg" width="80" height="80" viewBox="0 0 80 80"> <g fill="none"> <path fill="#B1006E" d="M56,26.2 L50,26.2 C49.3372583,26.2 48.8,25.6627417 48.8,25 L48.8,19 C48.8,18.5581722 48.4418278,18.2 48,18.2 C47.5581722,18.2 47.2,18.5581722 47.2,19 L47.2,25 C47.2,26.5463973 48.4536027,27.8 50,27.8 L56,27.8 C56.4418278,27.8 56.8,27.4418278 56.8,27 C56.8,26.5581722 56.4418278,26.2 56,26.2 Z" class="secondary"/> <path fill="#512472" d="M51.2062331,61.8996497 L51.2,62 C51.2,63.2150264 50.2150264,64.2 49,64.2 L23,64.2 C21.7849736,64.2 20.8,63.2150264 20.8,62 L20.8,25 C20.8,23.7849736 21.7849736,22.8 23,22.8 L24,22.8 C24.4418278,22.8 24.8,22.4418278 24.8,22 C24.8,21.5581722 24.4418278,21.2 24,21.2 L23,21.2 C20.901318,21.2 19.2,22.901318 19.2,25 L19.2,62 C19.2,64.098682 20.901318,65.8 23,65.8 L49,65.8 C51.098682,65.8 52.8,64.098682 52.8,62 C52.8,61.5581722 52.4418278,61.2 52,61.2 C51.592159,61.2 51.2555984,61.5051881 51.2062331,61.8996497 Z" class="primary"/> <path fill="#B1006E" d="M48.7946539,14.2 C49.8120223,14.2 50.7869048,14.6079541 51.5010608,15.3325365 L59.7064069,23.657676 C60.4071663,24.3686661 60.8,25.3268558 60.8,26.3251395 L60.8,55 C60.8,57.098682 59.098682,58.8 57,58.8 L31,58.8 C28.901318,58.8 27.2,57.098682 27.2,55 L27.2,18 C27.2,15.901318 28.901318,14.2 31,14.2 L48.7946539,14.2 Z M48.7946539,15.8 L31,15.8 C29.7849736,15.8 28.8,16.7849736 28.8,18 L28.8,55 C28.8,56.2150264 29.7849736,57.2 31,57.2 L57,57.2 C58.2150264,57.2 59.2,56.2150264 59.2,55 L59.2,26.3251395 C59.2,25.7471858 58.97257,25.1924444 58.5668672,24.7808186 L50.3615211,16.455679 C49.9480623,16.036184 49.3836567,15.8 48.7946539,15.8 Z" class="secondary"/> </g> </svg> 