<svg xmlns="http://www.w3.org/2000/svg" width="80" height="80" viewBox="0 0 80 80"> <g fill="none"> <path fill="#512472" d="M63.8,63 C63.8,55.8672838 53.3154676,50.3203971 40.4213055,50.2019339 L40,50.2 C26.9136958,50.2 16.2,55.7897543 16.2,63 C16.2,63.4418278 16.5581722,63.8 17,63.8 C17.4418278,63.8 17.8,63.4418278 17.8,63 C17.8,57.0241002 27.4579089,51.9172833 39.5809963,51.8019909 L40,51.8 C52.3187943,51.8 62.2,56.9554117 62.2,63 C62.2,63.4418278 62.5581722,63.8 63,63.8 C63.4418278,63.8 63.8,63.4418278 63.8,63 Z" class="primary"/> <path fill="#B1006E" d="M40,17.2 C47.6215295,17.2 53.8,23.3784705 53.8,31 C53.8,38.6215295 47.6215295,44.8 40,44.8 C32.3784705,44.8 26.2,38.6215295 26.2,31 C26.2,23.3784705 32.3784705,17.2 40,17.2 Z M40,18.8 C33.2621261,18.8 27.8,24.2621261 27.8,31 C27.8,37.7378739 33.2621261,43.2 40,43.2 C46.7378739,43.2 52.2,37.7378739 52.2,31 C52.2,24.2621261 46.7378739,18.8 40,18.8 Z" class="secondary"/> </g> </svg> 