<svg xmlns="http://www.w3.org/2000/svg" width="80" height="80" viewBox="0 0 80 80"> <g fill="none"> <path fill="#B1006E" d="M54.3152494,28.1166888 L47.1821792,28.1166888 C46.3110661,28.1166888 45.6044891,27.4101117 45.6044891,26.5389987 L45.6044891,19.4059284 C45.6044891,18.9641006 45.2463169,18.6059284 44.8044891,18.6059284 C44.3626613,18.6059284 44.0044891,18.9641006 44.0044891,19.4059284 L44.0044891,26.5389987 C44.0044891,28.2937673 45.4274105,29.7166888 47.1821792,29.7166888 L54.3152494,29.7166888 C54.7570772,29.7166888 55.1152494,29.3585166 55.1152494,28.9166888 C55.1152494,28.474861 54.7570772,28.1166888 54.3152494,28.1166888 Z" class="secondary"/> <path fill="#B1006E" d="M45.7491166,13.8506982 C46.9179904,13.8506982 48.0379985,14.3193127 48.8593112,15.15165 L58.6138032,25.0493588 C59.4190493,25.8665413 59.8704796,26.9673425 59.8704796,28.1145277 L59.8704796,62.2037502 C59.8704796,64.6154551 57.9158424,66.5706602 55.5043194,66.5706602 L24.5943483,66.5706602 C22.1828253,66.5706602 20.228188,64.6154551 20.228188,62.2037502 L20.228188,18.2168584 C20.228188,15.8052445 22.1827343,13.8506982 24.5943483,13.8506982 L45.7491166,13.8506982 Z M45.7491166,15.4506982 L24.5943483,15.4506982 C23.0663899,15.4506982 21.828188,16.6889001 21.828188,18.2168584 L21.828188,62.2037502 C21.828188,63.7319036 23.066585,64.9706602 24.5943483,64.9706602 L55.5043194,64.9706602 C57.0320827,64.9706602 58.2704796,63.7319036 58.2704796,62.2037502 L58.2704796,28.1145277 C58.2704796,27.387701 57.9844678,26.6902687 57.4741786,26.1724153 L47.7200744,16.2750997 C47.1996627,15.7477026 46.4898098,15.4506982 45.7491166,15.4506982 Z" class="secondary"/> <path fill="#512472" d="M47.5475681,41.9080941 L32.5510996,41.9080941 C32.1092718,41.9080941 31.7510996,42.2662663 31.7510996,42.7080941 C31.7510996,43.1499219 32.1092718,43.5080941 32.5510996,43.5080941 L47.5475681,43.5080941 C47.9893959,43.5080941 48.3475681,43.1499219 48.3475681,42.7080941 C48.3475681,42.2662663 47.9893959,41.9080941 47.5475681,41.9080941 Z" class="primary"/> <path fill="#512472" d="M41.2242456,50.5812401 L41.2242456,35.5847715 C41.2242456,35.1429437 40.8660734,34.7847715 40.4242456,34.7847715 C39.9824178,34.7847715 39.6242456,35.1429437 39.6242456,35.5847715 L39.6242456,50.5812401 C39.6242456,51.0230679 39.9824178,51.3812401 40.4242456,51.3812401 C40.8660734,51.3812401 41.2242456,51.0230679 41.2242456,50.5812401 Z" class="primary"/> </g> </svg> 