<svg xmlns="http://www.w3.org/2000/svg" width="80" height="80" viewBox="0 0 80 80"> <g fill="none"> <path fill="#B1006E" d="M47.8,48.2 C48.207841,48.2 48.5444016,48.5051881 48.5937669,48.8996497 L48.6,49 L48.6,54 C48.6,54.4418278 48.2418278,54.8 47.8,54.8 C47.392159,54.8 47.0555984,54.4948119 47.0062331,54.1003503 L47,54 L47,49 C47,48.5581722 47.3581722,48.2 47.8,48.2 Z M24.8,48.2 C25.207841,48.2 25.5444016,48.5051881 25.5937669,48.8996497 L25.6,49 L25.6,54 C25.6,54.4418278 25.2418278,54.8 24.8,54.8 C24.392159,54.8 24.0555984,54.4948119 24.0062331,54.1003503 L24,54 L24,49 C24,48.5581722 24.3581722,48.2 24.8,48.2 Z M53.8,48.2 C54.207841,48.2 54.5444016,48.5051881 54.5937669,48.8996497 L54.6,49 L54.6,54 C54.6,54.4418278 54.2418278,54.8 53.8,54.8 C53.392159,54.8 53.0555984,54.4948119 53.0062331,54.1003503 L53,54 L53,49 C53,48.5581722 53.3581722,48.2 53.8,48.2 Z M30.8,48.2 C31.207841,48.2 31.5444016,48.5051881 31.5937669,48.8996497 L31.6,49 L31.6,54 C31.6,54.4418278 31.2418278,54.8 30.8,54.8 C30.392159,54.8 30.0555984,54.4948119 30.0062331,54.1003503 L30,54 L30,49 C30,48.5581722 30.3581722,48.2 30.8,48.2 Z M47.8,38.2 C48.207841,38.2 48.5444016,38.5051881 48.5937669,38.8996497 L48.6,39 L48.6,44 C48.6,44.4418278 48.2418278,44.8 47.8,44.8 C47.392159,44.8 47.0555984,44.4948119 47.0062331,44.1003503 L47,44 L47,39 C47,38.5581722 47.3581722,38.2 47.8,38.2 Z M24.8,38.2 C25.207841,38.2 25.5444016,38.5051881 25.5937669,38.8996497 L25.6,39 L25.6,44 C25.6,44.4418278 25.2418278,44.8 24.8,44.8 C24.392159,44.8 24.0555984,44.4948119 24.0062331,44.1003503 L24,44 L24,39 C24,38.5581722 24.3581722,38.2 24.8,38.2 Z M53.8,38.2 C54.207841,38.2 54.5444016,38.5051881 54.5937669,38.8996497 L54.6,39 L54.6,44 C54.6,44.4418278 54.2418278,44.8 53.8,44.8 C53.392159,44.8 53.0555984,44.4948119 53.0062331,44.1003503 L53,44 L53,39 C53,38.5581722 53.3581722,38.2 53.8,38.2 Z M30.8,38.2 C31.207841,38.2 31.5444016,38.5051881 31.5937669,38.8996497 L31.6,39 L31.6,44 C31.6,44.4418278 31.2418278,44.8 30.8,44.8 C30.392159,44.8 30.0555984,44.4948119 30.0062331,44.1003503 L30,44 L30,39 C30,38.5581722 30.3581722,38.2 30.8,38.2 Z M47.8,28.2 C48.207841,28.2 48.5444016,28.5051881 48.5937669,28.8996497 L48.6,29 L48.6,34 C48.6,34.4418278 48.2418278,34.8 47.8,34.8 C47.392159,34.8 47.0555984,34.4948119 47.0062331,34.1003503 L47,34 L47,29 C47,28.5581722 47.3581722,28.2 47.8,28.2 Z M24.8,28.2 C25.207841,28.2 25.5444016,28.5051881 25.5937669,28.8996497 L25.6,29 L25.6,34 C25.6,34.4418278 25.2418278,34.8 24.8,34.8 C24.392159,34.8 24.0555984,34.4948119 24.0062331,34.1003503 L24,34 L24,29 C24,28.5581722 24.3581722,28.2 24.8,28.2 Z M53.8,28.2 C54.207841,28.2 54.5444016,28.5051881 54.5937669,28.8996497 L54.6,29 L54.6,34 C54.6,34.4418278 54.2418278,34.8 53.8,34.8 C53.392159,34.8 53.0555984,34.4948119 53.0062331,34.1003503 L53,34 L53,29 C53,28.5581722 53.3581722,28.2 53.8,28.2 Z M30.8,28.2 C31.207841,28.2 31.5444016,28.5051881 31.5937669,28.8996497 L31.6,29 L31.6,34 C31.6,34.4418278 31.2418278,34.8 30.8,34.8 C30.392159,34.8 30.0555984,34.4948119 30.0062331,34.1003503 L30,34 L30,29 C30,28.5581722 30.3581722,28.2 30.8,28.2 Z M47.8,18.2 C48.207841,18.2 48.5444016,18.5051881 48.5937669,18.8996497 L48.6,19 L48.6,24 C48.6,24.4418278 48.2418278,24.8 47.8,24.8 C47.392159,24.8 47.0555984,24.4948119 47.0062331,24.1003503 L47,24 L47,19 C47,18.5581722 47.3581722,18.2 47.8,18.2 Z M53.8,18.2 C54.207841,18.2 54.5444016,18.5051881 54.5937669,18.8996497 L54.6,19 L54.6,24 C54.6,24.4418278 54.2418278,24.8 53.8,24.8 C53.392159,24.8 53.0555984,24.4948119 53.0062331,24.1003503 L53,24 L53,19 C53,18.5581722 53.3581722,18.2 53.8,18.2 Z" class="secondary"/> <path fill="#512472" d="M17,62.8 C16.5581722,62.8 16.2,62.4418278 16.2,62 C16.2,61.592159 16.5051881,61.2555984 16.8996497,61.2062331 L17,61.2 L18.199,61.199 L18.2,23 C18.2,22.0555931 18.9273134,21.2810593 19.852372,21.2059669 L20,21.2 L36,21.2 C36.9444069,21.2 37.7189407,21.9273134 37.7940331,22.852372 L37.8,23 L37.799,61.199 L41.199,61.199 L41.2,13 C41.2,12.0555931 41.9273134,11.2810593 42.852372,11.2059669 L43,11.2 L59,11.2 C59.9444069,11.2 60.7189407,11.9273134 60.7940331,12.852372 L60.8,13 L60.799,61.199 L63,61.2 C63.407841,61.2 63.7444016,61.5051881 63.7937669,61.8996497 L63.8,62 C63.8,62.407841 63.4948119,62.7444016 63.1003503,62.7937669 L63,62.8 L17,62.8 Z M59.0531679,12.8071442 L59,12.8 L43,12.8 C42.9079525,12.8 42.8304286,12.8621827 42.8071442,12.9468321 L42.8,13 L42.799,61.199 L59.199,61.199 L59.2,13 C59.2,12.9079525 59.1378173,12.8304286 59.0531679,12.8071442 Z M36,22.8 L20,22.8 C19.9079525,22.8 19.8304286,22.8621827 19.8071442,22.9468321 L19.8,23 L19.799,61.199 L36.199,61.199 L36.2,23 C36.2,22.9079525 36.1378173,22.8304286 36.0531679,22.8071442 L36,22.8 Z" class="primary"/> </g> </svg> 